{"title":"Teenage.Mutant.Ninja.Turtles.2014.CAM.XviD-VAiN","uid":10758081,"size":1493429205,"categoryP":"video","categoryS":"movies","magnet":"?xt=urn:btih:be8b72863f03d3fd596099a89fb2ed0edd709340&amp;dn=Teenage.Mutant.Ninja.Turtles.2014.CAM.XviD-VAiN&amp;tr=udp%3A%2F%2Ftracker.openbittorrent.com%3A80&amp;tr=udp%3A%2F%2Fopen.demonii.com%3A1337&amp;tr=udp%3A%2F%2Ftracker.coppersurfer.tk%3A6969&amp;tr=udp%3A%2F%2Fexodus.desync.com%3A6969","seeders":5,"leechers":0,"uploader":"ali1997a","files":4,"time":1407950721,"description":"SilverTorrent - Clean And Verified Torrents Download\n &lt;a href=&quot;\nhttp://i.imgur.com/ky6BGho.png&quot; rel=&quot;nofollow&quot; target=&quot;_NEW&quot;&gt;\nhttp://i.imgur.com/ky6BGho.png&lt;/a&gt;\n &lt;a href=&quot;\nhttp://i.imgur.com/gFuEtFk.jpg&quot; rel=&quot;nofollow&quot; target=&quot;_NEW&quot;&gt;\nhttp://i.imgur.com/gFuEtFk.jpg&lt;/a&gt;\n\niMDB http://www.imdb.com/title/tt1291150/\n\niNFO:\n\nGeneral\nFormat: AVI\nFormat/Info: Audio Video Interleave\nFile size: 1.38 GiB\nDuration: 1h 33mn\nOverall bit rate: 2 106 Kbps\nWriting application: VirtualDubMod 1.5.10.2 (build 2540/release)\nWriting library: VirtualDubMod build 2540/release\n\nVideo\nID: 0\nFormat: MPEG-4 Visual\nFormat profile: Advanced Simple@L5\nFormat settings, BVOP: 1\nFormat settings, QPel: No\nFormat settings, GMC: No warppoints\nFormat settings, Matrix: Default (H.263)\nCodec ID: XVID\nCodec ID/Hint: XviD\nDuration: 1h 33mn\nBit rate: 1 959 Kbps\nWidth: 720 pixels\nHeight: 288 pixels\nDisplay aspect ratio: 2.500\nFrame rate: 50.000 fps\nColor space: YUV\nChroma subsampling: 4:2:0\nBit depth: 8 bits\nScan type: Progressive\nCompression mode: Lossy\nBits/(Pixel*Frame): 0.189\nStream size: 1.28 GiB (93%)\nWriting library: XviD 1.2.1 (UTC 2008-12-04)\n\nAudio\nID: 1\nFormat: MPEG Audio\nFormat version: Version 1\nFormat profile: Layer 3\nMode: Joint stereo\nMode extension: MS Stereo\nCodec ID: 55\nCodec ID/Hint: MP3\nDuration: 1h 33mn\nBit rate mode: Constant\nBit rate: 128 Kbps\nChannel(s): 2 channels\nSampling rate: 44.1 KHz\nCompression mode: Lossy\nStream size: 85.7 MiB (6%)\nAlignment: Split accross interleaves\nInterleave, duration: 20 ms (1.00 video frame)\nInterleave, preload duration: 500 ms\nWriting library: LAME3.99r\nEncoding settings: -m j -V 4 -q 2 -lowpass 17 -b 128\n\nE N C O D E R S . N O T E S\n\nSOURCE: video:theol'rbag: audio:theol'rbag\nSAMPLE: Yes \n\n\nSCREENS:\n &lt;a href=&quot;\nhttp://i.imgur.com/dEfOem0.png&quot; rel=&quot;nofollow&quot; target=&quot;_NEW&quot;&gt;\nhttp://i.imgur.com/dEfOem0.png&lt;/a&gt;\n &lt;a href=&quot;\nhttp://i.imgur.com/T1qGfWr.png&quot; rel=&quot;nofollow&quot; target=&quot;_NEW&quot;&gt;\nhttp://i.imgur.com/T1qGfWr.png&lt;/a&gt;\n &lt;a href=&quot;\nhttp://i.imgur.com/YS4g5wO.png&quot; rel=&quot;nofollow&quot; target=&quot;_NEW&quot;&gt;\nhttp://i.imgur.com/YS4g5wO.png&lt;/a&gt;","torrent":{"xt":"urn:btih:be8b72863f03d3fd596099a89fb2ed0edd709340","amp;dn":"Teenage.Mutant.Ninja.Turtles.2014.CAM.XviD-VAiN","amp;tr":["udp%3A%2F%2Ftracker.openbittorrent.com%3A80","udp%3A%2F%2Fopen.demonii.com%3A1337","udp%3A%2F%2Ftracker.coppersurfer.tk%3A6969","udp%3A%2F%2Fexodus.desync.com%3A6969"],"infoHash":"be8b72863f03d3fd596099a89fb2ed0edd709340","infoHashBuffer":{"type":"Buffer","data":[190,139,114,134,63,3,211,253,89,96,153,168,159,178,237,14,221,112,147,64]},"announce":[],"urlList":[]}}